<mxfile host="app.diagrams.net" modified="2024-03-13T05:29:41.164Z" agent="Mozilla/5.0 (Windows NT 10.0; Win64; x64) AppleWebKit/537.36 (KHTML, like Gecko) Chrome/122.0.0.0 Safari/537.36 Edg/122.0.0.0" version="24.0.5" etag="4ZGsBvjdE5pmwCD_xuCZ" type="github">
  <diagram name="Page-1" id="ZO9dB0F8EGCALy7AHriP">
    <mxGraphModel>
      <root>
        <mxCell id="0" />
        <mxCell id="1" parent="0" />
      </root>
    </mxGraphModel>
  </diagram>
</mxfile>
